<?xml version="1.0" standalone="no"?><!DOCTYPE svg PUBLIC "-//W3C//DTD SVG 1.1//EN" "http://www.w3.org/Graphics/SVG/1.1/DTD/svg11.dtd">
<svg t="1559175790851" class="icon" style="" viewBox="0 0 1024 1024" version="1.1" 
    xmlns="http://www.w3.org/2000/svg" p-id="1088" 
    xmlns:xlink="http://www.w3.org/1999/xlink" width="32" height="32">
    <defs>
        <style type="text/css"></style>
    </defs>
    <path d="M512 512m-512 0a512 512 0 1 0 1024 0 512 512 0 1 0-1024 0Z" fill="#FFC61B" p-id="1089"></path>
    <path d="M366.906 258.478l43.098 43.098 18.424-12.39 19.446-32.056-40.564-40.562zM573.784 1020.276c252.452-30.372 448.35-244.426 450.166-504.636L719.204 210.892l-174.448 151.128-42.446 254.062-51.794-51.794-131.592 44.25 179.894 179.894-100.594 56.282 175.56 175.562z" fill="#EAA22F" p-id="1090"></path>
    <path d="M625.778 844.714H398.222l-56.888-284.444h341.332z" fill="#D35933" p-id="1091"></path>
    <path d="M682.666 560.27h-171.814v284.444h114.926z" fill="#B54324" p-id="1092"></path>
    <path d="M380.984 354.548c0-72.36 58.658-131.016 131.016-131.016s131.016 58.658 131.016 131.016S584.36 572.908 512 572.908s-131.016-146-131.016-218.36z" fill="#6CAF5F" p-id="1093"></path>
    <path d="M512 223.532c-0.386 0-0.766 0.028-1.148 0.032v349.312c0.382 0.006 0.766 0.034 1.148 0.034 72.36 0 131.016-146.004 131.016-218.36S584.36 223.532 512 223.532z" fill="#477F3C" p-id="1094"></path>
    <path d="M719.206 210.892c15.766 22.504 10.306 53.528-12.198 69.294-22.504 15.766-94.276 38.854-110.044 16.35-15.766-22.504 30.44-82.078 52.948-97.842 22.508-15.764 53.528-10.306 69.294 12.198zM693.216 349.556c-1.466 15.978-15.604 27.742-31.582 26.276-15.978-1.466-56.672-18.26-55.206-34.234s44.536-25.086 60.512-23.62c15.978 1.462 27.742 15.602 26.276 31.578zM368.412 214.936c12.34-10.26 30.654-8.578 40.912 3.754 10.258 12.332 27.144 52.976 14.804 63.236-12.34 10.26-49.228-13.75-59.486-26.082-10.256-12.336-8.566-30.65 3.77-40.908z" fill="#2E5E24" p-id="1095"></path>
    <path d="M318.922 512h386.154v96.538H318.922z" fill="#B54324" p-id="1096"></path>
    <path d="M510.862 512h194.216v96.538h-194.216z" fill="#930000" p-id="1097"></path>
</svg>